<svg xmlns:xlink="http://www.w3.org/1999/xlink" xmlns="http://www.w3.org/2000/svg" viewBox="0 0 152.58984375 43.999000549316406" preserveAspectRatio="xMidYMid meet" width="152.58984375"  height="43.999000549316406" ><g transform="translate(-322.555 -120)"><g transform="translate(322.555 120)"><path d="M339.821,140.432v15.377a3.165,3.165,0,0,0,1.036,2.342l12.5,11.367a3.166,3.166,0,0,0,4.259,0l12.5-11.367a3.165,3.165,0,0,0,1.036-2.342V140.432a3.166,3.166,0,0,0-3.166-3.166H342.987A3.166,3.166,0,0,0,339.821,140.432Z" transform="translate(-335.073 -132.518)" fill="#E6E6FF"></path><circle cx="0.475" cy="0.475" r="0.475" fill="#9999FF"></circle><circle cx="0.475" cy="0.475" r="0.475" transform="translate(5.698)" fill="#9999FF"></circle><circle cx="0.475" cy="0.475" r="0.475" transform="translate(11.396)" fill="#9999FF"></circle><circle cx="0.475" cy="0.475" r="0.475" transform="translate(17.094)" fill="#9999FF"></circle><circle cx="0.475" cy="0.475" r="0.475" transform="translate(22.791)" fill="#9999FF"></circle><circle cx="0.475" cy="0.475" r="0.475" transform="translate(28.489)" fill="#9999FF"></circle><circle cx="0.475" cy="0.475" r="0.475" transform="translate(34.187)" fill="#9999FF"></circle><circle cx="0.475" cy="0.475" r="0.475" transform="translate(39.885)" fill="#9999FF"></circle><circle cx="0.791" cy="0.791" r="0.791" transform="translate(2.532 2.532)" fill="#9999FF"></circle><circle cx="0.791" cy="0.791" r="0.791" transform="translate(8.23 2.532)" fill="#9999FF"></circle><circle cx="0.791" cy="0.791" r="0.791" transform="translate(13.928 2.532)" fill="#9999FF"></circle><circle cx="0.791" cy="0.791" r="0.791" transform="translate(19.626 2.532)" fill="#9999FF"></circle><circle cx="0.791" cy="0.791" r="0.791" transform="translate(25.324 2.532)" fill="#9999FF"></circle><circle cx="0.791" cy="0.791" r="0.791" transform="translate(31.022 2.532)" fill="#9999FF"></circle><circle cx="0.791" cy="0.791" r="0.791" transform="translate(36.719 2.532)" fill="#9999FF"></circle><circle cx="0.475" cy="0.475" r="0.475" transform="translate(0 5.698)" fill="#9999FF"></circle><circle cx="1.424" cy="1.424" r="1.424" transform="translate(4.748 4.748)" fill="#9999FF"></circle><circle cx="1.424" cy="1.424" r="1.424" transform="translate(10.446 4.748)" fill="#9999FF"></circle><circle cx="1.424" cy="1.424" r="1.424" transform="translate(16.144 4.748)" fill="#9999FF"></circle><circle cx="1.424" cy="1.424" r="1.424" transform="translate(21.842 4.748)" fill="#9999FF"></circle><circle cx="1.424" cy="1.424" r="1.424" transform="translate(27.54 4.748)" fill="#9999FF"></circle><circle cx="1.424" cy="1.424" r="1.424" transform="translate(33.237 4.748)" fill="#9999FF"></circle><circle cx="0.475" cy="0.475" r="0.475" transform="translate(39.885 5.698)" fill="#9999FF"></circle><circle cx="0.791" cy="0.791" r="0.791" transform="translate(2.532 8.23)" fill="#9999FF"></circle><circle cx="1.424" cy="1.424" r="1.424" transform="translate(7.597 7.597)" fill="#9999FF"></circle><circle cx="1.424" cy="1.424" r="1.424" transform="translate(13.295 7.597)" fill="#9999FF"></circle><circle cx="1.424" cy="1.424" r="1.424" transform="translate(18.993 7.597)" fill="#9999FF"></circle><circle cx="1.424" cy="1.424" r="1.424" transform="translate(24.691 7.597)" fill="#9999FF"></circle><circle cx="1.424" cy="1.424" r="1.424" transform="translate(30.388 7.597)" fill="#9999FF"></circle><circle cx="0.791" cy="0.791" r="0.791" transform="translate(36.719 8.23)" fill="#9999FF"></circle><circle cx="0.475" cy="0.475" r="0.475" transform="translate(0 11.396)" fill="#9999FF"></circle><circle cx="1.424" cy="1.424" r="1.424" transform="translate(4.748 10.446)" fill="#9999FF"></circle><circle cx="1.424" cy="1.424" r="1.424" transform="translate(10.446 10.446)" fill="#9999FF"></circle><circle cx="1.424" cy="1.424" r="1.424" transform="translate(16.144 10.446)" fill="#9999FF"></circle><circle cx="1.424" cy="1.424" r="1.424" transform="translate(21.842 10.446)" fill="#9999FF"></circle><circle cx="1.424" cy="1.424" r="1.424" transform="translate(27.54 10.446)" fill="#9999FF"></circle><circle cx="1.424" cy="1.424" r="1.424" transform="translate(33.237 10.446)" fill="#9999FF"></circle><circle cx="0.475" cy="0.475" r="0.475" transform="translate(39.885 11.396)" fill="#9999FF"></circle><circle cx="0.791" cy="0.791" r="0.791" transform="translate(2.532 13.928)" fill="#9999FF"></circle><circle cx="1.424" cy="1.424" r="1.424" transform="translate(7.597 13.295)" fill="#9999FF"></circle><circle cx="1.424" cy="1.424" r="1.424" transform="translate(13.295 13.295)" fill="#9999FF"></circle><circle cx="1.424" cy="1.424" r="1.424" transform="translate(18.993 13.295)" fill="#9999FF"></circle><circle cx="1.424" cy="1.424" r="1.424" transform="translate(24.691 13.295)" fill="#9999FF"></circle><circle cx="1.424" cy="1.424" r="1.424" transform="translate(30.388 13.295)" fill="#9999FF"></circle><circle cx="0.791" cy="0.791" r="0.791" transform="translate(36.719 13.928)" fill="#9999FF"></circle><circle cx="0.791" cy="0.791" r="0.791" transform="translate(2.532 19.626)" fill="#9999FF"></circle><circle cx="1.424" cy="1.424" r="1.424" transform="translate(7.597 18.993)" fill="#9999FF"></circle><circle cx="1.424" cy="1.424" r="1.424" transform="translate(13.295 18.993)" fill="#9999FF"></circle><circle cx="1.424" cy="1.424" r="1.424" transform="translate(18.993 18.993)" fill="#9999FF"></circle><circle cx="1.424" cy="1.424" r="1.424" transform="translate(24.691 18.993)" fill="#9999FF"></circle><circle cx="1.424" cy="1.424" r="1.424" transform="translate(30.388 18.993)" fill="#9999FF"></circle><circle cx="0.791" cy="0.791" r="0.791" transform="translate(36.719 19.626)" fill="#9999FF"></circle><circle cx="0.475" cy="0.475" r="0.475" transform="translate(0 17.094)" fill="#9999FF"></circle><circle cx="1.424" cy="1.424" r="1.424" transform="translate(4.748 16.144)" fill="#9999FF"></circle><circle cx="1.424" cy="1.424" r="1.424" transform="translate(10.446 16.144)" fill="#9999FF"></circle><circle cx="1.424" cy="1.424" r="1.424" transform="translate(16.144 16.144)" fill="#9999FF"></circle><circle cx="1.424" cy="1.424" r="1.424" transform="translate(21.842 16.144)" fill="#9999FF"></circle><circle cx="1.424" cy="1.424" r="1.424" transform="translate(27.54 16.144)" fill="#9999FF"></circle><circle cx="1.424" cy="1.424" r="1.424" transform="translate(33.237 16.144)" fill="#9999FF"></circle><circle cx="0.475" cy="0.475" r="0.475" transform="translate(39.885 17.094)" fill="#9999FF"></circle><circle cx="0.791" cy="0.791" r="0.791" transform="translate(2.532 25.324)" fill="#9999FF"></circle><circle cx="1.424" cy="1.424" r="1.424" transform="translate(7.597 24.691)" fill="#9999FF"></circle><circle cx="1.424" cy="1.424" r="1.424" transform="translate(13.295 24.691)" fill="#9999FF"></circle><circle cx="1.424" cy="1.424" r="1.424" transform="translate(18.993 24.691)" fill="#9999FF"></circle><circle cx="1.424" cy="1.424" r="1.424" transform="translate(24.691 24.691)" fill="#9999FF"></circle><circle cx="1.424" cy="1.424" r="1.424" transform="translate(30.388 24.691)" fill="#9999FF"></circle><circle cx="0.791" cy="0.791" r="0.791" transform="translate(36.719 25.324)" fill="#9999FF"></circle><circle cx="0.475" cy="0.475" r="0.475" transform="translate(0 22.791)" fill="#9999FF"></circle><circle cx="1.424" cy="1.424" r="1.424" transform="translate(4.748 21.842)" fill="#9999FF"></circle><circle cx="1.424" cy="1.424" r="1.424" transform="translate(10.446 21.842)" fill="#9999FF"></circle><circle cx="1.424" cy="1.424" r="1.424" transform="translate(16.144 21.842)" fill="#9999FF"></circle><circle cx="1.424" cy="1.424" r="1.424" transform="translate(21.842 21.842)" fill="#9999FF"></circle><circle cx="1.424" cy="1.424" r="1.424" transform="translate(27.54 21.842)" fill="#9999FF"></circle><circle cx="1.424" cy="1.424" r="1.424" transform="translate(33.237 21.842)" fill="#9999FF"></circle><circle cx="0.475" cy="0.475" r="0.475" transform="translate(39.885 22.791)" fill="#9999FF"></circle><circle cx="0.475" cy="0.475" r="0.475" transform="translate(2.849 31.338)" fill="#9999FF"></circle><circle cx="0.791" cy="0.791" r="0.791" transform="translate(8.23 31.022)" fill="#9999FF"></circle><circle cx="1.424" cy="1.424" r="1.424" transform="translate(13.295 30.388)" fill="#9999FF"></circle><circle cx="1.424" cy="1.424" r="1.424" transform="translate(18.993 30.388)" fill="#9999FF"></circle><circle cx="1.424" cy="1.424" r="1.424" transform="translate(24.691 30.388)" fill="#9999FF"></circle><circle cx="0.791" cy="0.791" r="0.791" transform="translate(31.022 31.022)" fill="#9999FF"></circle><circle cx="0.475" cy="0.475" r="0.475" transform="translate(37.036 31.338)" fill="#9999FF"></circle><circle cx="0.475" cy="0.475" r="0.475" transform="translate(0 28.489)" fill="#9999FF"></circle><circle cx="0.791" cy="0.791" r="0.791" transform="translate(5.381 28.173)" fill="#9999FF"></circle><circle cx="1.424" cy="1.424" r="1.424" transform="translate(10.446 27.54)" fill="#9999FF"></circle><circle cx="1.424" cy="1.424" r="1.424" transform="translate(16.144 27.54)" fill="#9999FF"></circle><circle cx="1.424" cy="1.424" r="1.424" transform="translate(21.842 27.54)" fill="#9999FF"></circle><circle cx="1.424" cy="1.424" r="1.424" transform="translate(27.54 27.54)" fill="#9999FF"></circle><circle cx="0.791" cy="0.791" r="0.791" transform="translate(33.871 28.173)" fill="#9999FF"></circle><circle cx="0.475" cy="0.475" r="0.475" transform="translate(39.885 28.489)" fill="#9999FF"></circle><circle cx="0.475" cy="0.475" r="0.475" transform="translate(8.547 37.036)" fill="#9999FF"></circle><circle cx="0.791" cy="0.791" r="0.791" transform="translate(13.928 36.719)" fill="#9999FF"></circle><circle cx="1.424" cy="1.424" r="1.424" transform="translate(18.993 36.086)" fill="#9999FF"></circle><circle cx="0.791" cy="0.791" r="0.791" transform="translate(25.324 36.719)" fill="#9999FF"></circle><circle cx="0.475" cy="0.475" r="0.475" transform="translate(31.338 37.036)" fill="#9999FF"></circle><circle cx="0.475" cy="0.475" r="0.475" transform="translate(5.698 34.187)" fill="#9999FF"></circle><circle cx="0.791" cy="0.791" r="0.791" transform="translate(11.079 33.871)" fill="#9999FF"></circle><circle cx="1.424" cy="1.424" r="1.424" transform="translate(16.144 33.237)" fill="#9999FF"></circle><circle cx="1.424" cy="1.424" r="1.424" transform="translate(21.842 33.237)" fill="#9999FF"></circle><circle cx="0.791" cy="0.791" r="0.791" transform="translate(28.173 33.871)" fill="#9999FF"></circle><circle cx="0.475" cy="0.475" r="0.475" transform="translate(34.187 34.187)" fill="#9999FF"></circle><circle cx="0.475" cy="0.475" r="0.475" transform="translate(14.245 42.734)" fill="#9999FF"></circle><circle cx="0.791" cy="0.791" r="0.791" transform="translate(19.626 42.417)" fill="#9999FF"></circle><circle cx="0.475" cy="0.475" r="0.475" transform="translate(25.64 42.734)" fill="#9999FF"></circle><circle cx="0.475" cy="0.475" r="0.475" transform="translate(11.396 39.885)" fill="#9999FF"></circle><circle cx="0.791" cy="0.791" r="0.791" transform="translate(16.777 39.568)" fill="#9999FF"></circle><circle cx="0.791" cy="0.791" r="0.791" transform="translate(22.475 39.568)" fill="#9999FF"></circle><circle cx="0.475" cy="0.475" r="0.475" transform="translate(28.489 39.885)" fill="#9999FF"></circle></g><g transform="translate(368.961 127.333)"><path d="M491.3,164.532a12.966,12.966,0,0,1,2.844-8.775,9.279,9.279,0,0,1,7.37-3.3,8.879,8.879,0,0,1,4.063.975,9.668,9.668,0,0,1,3.32,2.786V147.38a.713.713,0,0,1,.713-.713h3.565a.713.713,0,0,1,.713.713v27.907a.713.713,0,0,1-.713.713h-3.565a.713.713,0,0,1-.713-.713v-2.421a9.657,9.657,0,0,1-3.273,2.728,8.89,8.89,0,0,1-4.109.987,9.352,9.352,0,0,1-7.37-3.238Q491.3,170.1,491.3,164.532Zm5.177,0a8.282,8.282,0,0,0,1.776,5.479,5.809,5.809,0,0,0,4.7,2.136,7.31,7.31,0,0,0,3.412-.87,6.588,6.588,0,0,0,2.53-2.171v-9.123a6.813,6.813,0,0,0-2.542-2.205,7.164,7.164,0,0,0-3.4-.882,5.823,5.823,0,0,0-4.7,2.124A8.307,8.307,0,0,0,496.481,164.532Z" transform="translate(-491.304 -146.667)" fill="#FFFFFF"></path><path d="M587.33,171.309l9.509-24.19a.713.713,0,0,1,.664-.452h5.969a.713.713,0,0,1,.664.453l10.951,27.907a.713.713,0,0,1-.664.973H609.66a.714.714,0,0,1-.666-.456l-2.168-5.625h-12.7l-.735,1.908a.712.712,0,0,1-.665.456h-4.734A.712.712,0,0,1,587.33,171.309Zm8.334-6.289h9.625l-4.812-12.735Z" transform="translate(-560.886 -146.667)" fill="#FFFFFF"></path><path d="M702.67,161.64h7.614a5.533,5.533,0,0,0,3.889-1.393,5.128,5.128,0,0,0,0-7.289,5.535,5.535,0,0,0-3.889-1.393H708.96a.712.712,0,0,1-.712-.712v-3.474a.712.712,0,0,1,.712-.712h2.067a10.359,10.359,0,0,1,7.521,2.762A9.536,9.536,0,0,1,721.4,156.6a10.7,10.7,0,0,1-.627,3.738,8.042,8.042,0,0,1-1.706,2.82,9.421,9.421,0,0,1-2.391,1.822,8.826,8.826,0,0,1-2.8.929l5.6,9a.713.713,0,0,1-.606,1.09h-4.652a.714.714,0,0,1-.613-.349l-5.414-9.113H702.67v8.749a.713.713,0,0,1-.713.713h-4.145a.713.713,0,0,1-.713-.713V147.379a.712.712,0,0,1,.712-.712h4.147a.712.712,0,0,1,.712.712Z" transform="translate(-640.505 -146.667)" fill="#FFFFFF"></path><path d="M802.552,167.281v8.006a.713.713,0,0,1-.714.713h-4.145a.713.713,0,0,1-.713-.713v-8.006a.712.712,0,0,1,.712-.712h4.147A.713.713,0,0,1,802.552,167.281Zm-5.572-7v-8.714h-8.9a.713.713,0,0,1-.713-.713V147.38a.713.713,0,0,1,.713-.713h23.343a.713.713,0,0,1,.713.713v3.472a.713.713,0,0,1-.713.713h-8.874v8.714a.712.712,0,0,1-.712.712h-4.147A.712.712,0,0,1,796.981,160.279Z" transform="translate(-705.952 -146.667)" fill="#FFFFFF"></path><circle cx="0.93" cy="0.93" r="0.93" transform="translate(94.741 16.184)" fill="#FFFFFF"></circle><circle cx="0.93" cy="0.93" r="0.93" transform="translate(91.027 16.184)" fill="#FFFFFF"></circle><circle cx="0.93" cy="0.93" r="0.93" transform="translate(64.024 3.034)" fill="#FFFFFF"></circle><circle cx="0.93" cy="0.93" r="0.93" transform="translate(64.024)" fill="#FFFFFF"></circle><circle cx="0.93" cy="0.93" r="0.93" transform="translate(29.036 27.474)" fill="#FFFFFF"></circle><circle cx="0.93" cy="0.93" r="0.93" transform="translate(25.321 27.474)" fill="#FFFFFF"></circle></g></g></svg>